<?xml version="1.0" standalone="no"?><!DOCTYPE svg PUBLIC "-//W3C//DTD SVG 1.1//EN" "http://www.w3.org/Graphics/SVG/1.1/DTD/svg11.dtd"><svg t="1587183605353" class="icon" viewBox="0 0 1024 1024" version="1.1" xmlns="http://www.w3.org/2000/svg" p-id="19126" xmlns:xlink="http://www.w3.org/1999/xlink" width="200" height="200"><defs><style type="text/css"></style></defs><path d="M512 0C229.12 0 0 229.12 0 512s229.12 512 512 512 512-229.12 512-512S794.88 0 512 0zM262.4 583.68c-39.68 0-71.68-32-71.68-71.68s32-71.68 71.68-71.68 71.68 32 71.68 71.68c0 39.68-32 71.68-71.68 71.68z m249.6 0c-39.68 0-71.68-32-71.68-71.68s32-71.68 71.68-71.68c39.68 0 71.68 32 71.68 71.68 0 39.68-32 71.68-71.68 71.68z m249.6 0c-39.68 0-71.68-32-71.68-71.68s32-71.68 71.68-71.68 71.68 32 71.68 71.68c0 39.68-32 71.68-71.68 71.68z" fill="#f48661" p-id="19127"></path></svg>